# xmcd
#
# Track frame offsets:
#	182
#	14542
#	29712
#
# Disc length: 618 seconds
#
# Revision: 2
# Processed by: cddbd v1.5.1PL2 Copyright (c) Steve Scherf et al.
# Submitted via: EasyCDDAExtractor 7.1.2.1
#
DISCID=21026803
DTITLE=Holly Dunn - River North Session
DYEAR=1995
DGENRE=Country
TTITLE0=Love Someone Like Me
TTITLE1=Daddy's Hands
TTITLE2=Only When I Love
EXTD=
EXTT0=
EXTT1=
EXTT2=
PLAYORDER=
